<svg xmlns="http://www.w3.org/2000/svg" version="1.1" xmlns:xlink="http://www.w3.org/1999/xlink" width="512" height="512" x="0" y="0" viewBox="0 0 97 97" style="enable-background:new 0 0 512 512" xml:space="preserve" class=""><circle r="48.5" cx="48.5" cy="48.5" fill="#488066" shape="circle"></circle><g transform="matrix(0.95,0,0,0.95,2.404499912261983,2.463849878311173)"><g fill="#000"><path fill-rule="evenodd" d="M55.591 67.368c0-.505.463-.884.961-.798 1.926.333 3.907.506 5.928.506h5.284a2.6 2.6 0 1 0 0-5.2H62.48c-16.237 0-29.4-13.163-29.4-29.4V15.384a2 2 0 0 1 2-2h18.088c16.9 0 30.6 13.7 30.6 30.6V66.57c0 10.272-8.327 18.6-18.6 18.6h-2.977a6.6 6.6 0 0 1-6.6-6.6zm10.915-15.766a4 4 0 1 0 0-8 4 4 0 0 0 0 8z" clip-rule="evenodd" fill="#ffffff" opacity="1" data-original="#000000" class=""></path><path d="M27.355 18.319a.78.78 0 0 1 .525.742v13.415c0 14.163 8.509 26.338 20.694 31.692.295.13.488.42.488.741v6.424a6.6 6.6 0 0 1-6.6 6.6h-7.45c-12.483 0-22.6-10.118-22.6-22.6V23.288c0-3.343 2.596-6.413 6.285-6.327 2.273.053 5.574.316 8.658 1.358z" fill="#ffffff" opacity="1" data-original="#000000" class=""></path></g></g></svg>