<svg id="Capa_1" enable-background="new 0 0 512 512" height="512" viewBox="0 0 512 512" width="512" xmlns="http://www.w3.org/2000/svg"><g><path d="m311.542 77.815h-16.624v-77.815h-183.585c-13.951 0-25.261 11.31-25.261 25.261v46.372c0 3.414 2.767 6.181 6.181 6.181h10.443c14.498 0 26.754 11.367 27.151 25.86.412 15.037-11.654 27.356-26.598 27.356h-10.996c-3.414 0-6.181 2.767-6.181 6.181v65.453c0 3.414 2.767 6.181 6.181 6.181h65.431c3.414 0 6.181-2.767 6.181-6.181v-21.101c0-14.695 11.913-26.608 26.608-26.608 14.695 0 26.608 11.913 26.608 26.608v21.101c0 3.414 2.767 6.181 6.181 6.181h71.654v-77.815h17.178c14.944 0 27.01-12.32 26.598-27.356-.396-14.492-12.651-25.859-27.15-25.859z" fill="#98bce5"/><path d="m196.417 380.969h14.485c3.414 0 6.181-2.767 6.181-6.181v-65.452c0-3.414-2.767-6.181-6.181-6.181h-71.654v-27.282c0-14.854-12.202-26.944-27.231-26.601-14.542.331-25.985 12.607-25.985 27.153v26.731h-71.614c-3.414 0-6.181 2.767-6.181 6.181v65.452c0 3.414 2.767 6.181 6.181 6.181h14.485c14.499 0 26.754 11.367 27.152 25.86.413 15.037-11.654 27.357-26.598 27.357h-15.039c-3.414 0-6.181 2.767-6.181 6.181v46.372c-.001 13.95 11.309 25.26 25.261 25.26h177.404c3.414 0 6.181-2.767 6.181-6.181v-65.453c0-3.414-2.767-6.181-6.181-6.181h-15.038c-14.943 0-27.01-12.318-26.598-27.355.395-14.493 12.652-25.861 27.151-25.861z" fill="#75cdd5"/><path d="m464.08 0c-6.396 0-157.327 0-169.162 0v77.815h16.624c14.498 0 26.754 11.367 27.151 25.86.412 15.037-11.654 27.356-26.598 27.356h-17.178v77.815h77.814v21.22c0 14.695 11.913 26.608 26.608 26.608 14.695 0 26.608-11.913 26.608-26.608v-21.22h63.392v-183.585c.002-13.951-11.308-25.261-25.259-25.261z" fill="#0078c8"/><path d="m425.949 208.846v21.22c0 14.695-11.913 26.608-26.608 26.608-14.695 0-26.608-11.913-26.608-26.608v-21.22h-77.814v77.814h-20.666c-14.499 0-26.754 11.367-27.152 25.861-.412 15.037 11.654 27.356 26.598 27.356h21.219v71.634c0 3.413 2.767 6.181 6.181 6.181h162.981c13.951 0 25.261-11.31 25.261-25.261v-183.585c-55.525 0 34.864 0-63.392 0z" fill="#2abcc8"/><g><path d="m479.039 208.846v183.584c0 13.951-11.31 25.261-25.261 25.261h24.724c13.951 0 25.261-11.31 25.261-25.261v-183.584z" fill="#0cacba"/></g><g><path d="m478.502 0h-24.724c13.951 0 25.261 11.31 25.261 25.261v183.585h24.724v-183.585c.001-13.951-11.309-25.261-25.261-25.261z" fill="#0268b4"/></g></g></svg>